<mxfile host="app.diagrams.net" modified="2023-05-17T11:06:34.869Z" agent="Mozilla/5.0 (Windows NT 10.0; Win64; x64) AppleWebKit/537.36 (KHTML, like Gecko) Chrome/113.0.0.0 Safari/537.36" etag="JldtY9_uEDtPsVJIzMTs" version="21.3.2" type="device">
  <diagram name="Page-1" id="5pRJFXuPpLElhr_dWqjn">
    <mxGraphModel dx="794" dy="462" grid="1" gridSize="10" guides="1" tooltips="1" connect="1" arrows="1" fold="1" page="1" pageScale="1" pageWidth="827" pageHeight="1169" math="0" shadow="0">
      <root>
        <mxCell id="0" />
        <mxCell id="1" parent="0" />
        <mxCell id="tmsPjW48n5Mqv3lx4vjE-63" value="&lt;b&gt;&lt;font style=&quot;font-size: 22px;&quot;&gt;&lt;u&gt;Problem 5&lt;/u&gt;&lt;/font&gt;&lt;/b&gt;" style="text;html=1;strokeColor=none;fillColor=none;align=center;verticalAlign=middle;whiteSpace=wrap;rounded=0;" parent="1" vertex="1">
          <mxGeometry x="20" y="20" width="130" height="30" as="geometry" />
        </mxCell>
        <mxCell id="SMrPEyyfzLxNEOlqvxRe-3" style="edgeStyle=orthogonalEdgeStyle;rounded=0;orthogonalLoop=1;jettySize=auto;html=1;exitX=1;exitY=0.5;exitDx=0;exitDy=0;entryX=0;entryY=0.5;entryDx=0;entryDy=0;" edge="1" parent="1" source="tmsPjW48n5Mqv3lx4vjE-64" target="SMrPEyyfzLxNEOlqvxRe-2">
          <mxGeometry relative="1" as="geometry" />
        </mxCell>
        <mxCell id="tmsPjW48n5Mqv3lx4vjE-64" value="" style="rounded=0;whiteSpace=wrap;html=1;" parent="1" vertex="1">
          <mxGeometry x="30" y="80" width="120" height="60" as="geometry" />
        </mxCell>
        <mxCell id="tmsPjW48n5Mqv3lx4vjE-66" value="OliveOilData.csv" style="text;html=1;strokeColor=none;fillColor=none;align=center;verticalAlign=middle;whiteSpace=wrap;rounded=0;" parent="1" vertex="1">
          <mxGeometry x="55" y="95" width="65" height="30" as="geometry" />
        </mxCell>
        <mxCell id="SMrPEyyfzLxNEOlqvxRe-5" style="edgeStyle=orthogonalEdgeStyle;rounded=0;orthogonalLoop=1;jettySize=auto;html=1;entryX=0;entryY=0.5;entryDx=0;entryDy=0;" edge="1" parent="1" source="tmsPjW48n5Mqv3lx4vjE-67" target="SMrPEyyfzLxNEOlqvxRe-2">
          <mxGeometry relative="1" as="geometry" />
        </mxCell>
        <mxCell id="tmsPjW48n5Mqv3lx4vjE-67" value="&lt;br&gt;WorldMap" style="rounded=0;whiteSpace=wrap;html=1;" parent="1" vertex="1">
          <mxGeometry x="30" y="170" width="120" height="50" as="geometry" />
        </mxCell>
        <mxCell id="tmsPjW48n5Mqv3lx4vjE-89" value="" style="ellipse;whiteSpace=wrap;html=1;" parent="1" vertex="1">
          <mxGeometry x="130" y="180" width="10" height="10" as="geometry" />
        </mxCell>
        <mxCell id="SMrPEyyfzLxNEOlqvxRe-11" style="edgeStyle=orthogonalEdgeStyle;rounded=0;orthogonalLoop=1;jettySize=auto;html=1;" edge="1" parent="1" source="SMrPEyyfzLxNEOlqvxRe-2">
          <mxGeometry relative="1" as="geometry">
            <mxPoint x="380" y="150" as="targetPoint" />
          </mxGeometry>
        </mxCell>
        <mxCell id="SMrPEyyfzLxNEOlqvxRe-2" value="Join" style="ellipse;whiteSpace=wrap;html=1;aspect=fixed;" vertex="1" parent="1">
          <mxGeometry x="230" y="110" width="80" height="80" as="geometry" />
        </mxCell>
        <mxCell id="SMrPEyyfzLxNEOlqvxRe-14" style="edgeStyle=orthogonalEdgeStyle;rounded=0;orthogonalLoop=1;jettySize=auto;html=1;entryX=0;entryY=0.5;entryDx=0;entryDy=0;" edge="1" parent="1" source="SMrPEyyfzLxNEOlqvxRe-6" target="SMrPEyyfzLxNEOlqvxRe-13">
          <mxGeometry relative="1" as="geometry" />
        </mxCell>
        <mxCell id="SMrPEyyfzLxNEOlqvxRe-6" value="&lt;br&gt;problem5_27156_ProductionArea" style="rounded=0;whiteSpace=wrap;html=1;" vertex="1" parent="1">
          <mxGeometry x="380" y="125" width="240" height="50" as="geometry" />
        </mxCell>
        <mxCell id="SMrPEyyfzLxNEOlqvxRe-12" value="" style="ellipse;whiteSpace=wrap;html=1;" vertex="1" parent="1">
          <mxGeometry x="600" y="130" width="10" height="10" as="geometry" />
        </mxCell>
        <mxCell id="SMrPEyyfzLxNEOlqvxRe-16" style="edgeStyle=orthogonalEdgeStyle;rounded=0;orthogonalLoop=1;jettySize=auto;html=1;entryX=0.5;entryY=0;entryDx=0;entryDy=0;" edge="1" parent="1" source="SMrPEyyfzLxNEOlqvxRe-13" target="SMrPEyyfzLxNEOlqvxRe-15">
          <mxGeometry relative="1" as="geometry" />
        </mxCell>
        <mxCell id="SMrPEyyfzLxNEOlqvxRe-13" value="Add feature" style="ellipse;whiteSpace=wrap;html=1;aspect=fixed;" vertex="1" parent="1">
          <mxGeometry x="680" y="110" width="80" height="80" as="geometry" />
        </mxCell>
        <mxCell id="SMrPEyyfzLxNEOlqvxRe-20" style="edgeStyle=orthogonalEdgeStyle;rounded=0;orthogonalLoop=1;jettySize=auto;html=1;entryX=1;entryY=0.5;entryDx=0;entryDy=0;" edge="1" parent="1" source="SMrPEyyfzLxNEOlqvxRe-15" target="SMrPEyyfzLxNEOlqvxRe-19">
          <mxGeometry relative="1" as="geometry" />
        </mxCell>
        <mxCell id="SMrPEyyfzLxNEOlqvxRe-15" value="&lt;br&gt;problem5_27156_ProductionArea" style="rounded=0;whiteSpace=wrap;html=1;" vertex="1" parent="1">
          <mxGeometry x="600" y="290" width="220" height="50" as="geometry" />
        </mxCell>
        <mxCell id="SMrPEyyfzLxNEOlqvxRe-17" value="Production (decimal values with three digits)" style="text;html=1;strokeColor=none;fillColor=none;align=center;verticalAlign=middle;whiteSpace=wrap;rounded=0;" vertex="1" parent="1">
          <mxGeometry x="600" y="350" width="180" height="30" as="geometry" />
        </mxCell>
        <mxCell id="SMrPEyyfzLxNEOlqvxRe-18" value="" style="ellipse;whiteSpace=wrap;html=1;" vertex="1" parent="1">
          <mxGeometry x="800" y="300" width="10" height="10" as="geometry" />
        </mxCell>
        <mxCell id="SMrPEyyfzLxNEOlqvxRe-23" style="edgeStyle=orthogonalEdgeStyle;rounded=0;orthogonalLoop=1;jettySize=auto;html=1;entryX=1;entryY=0.5;entryDx=0;entryDy=0;" edge="1" parent="1" source="SMrPEyyfzLxNEOlqvxRe-19" target="SMrPEyyfzLxNEOlqvxRe-21">
          <mxGeometry relative="1" as="geometry" />
        </mxCell>
        <mxCell id="SMrPEyyfzLxNEOlqvxRe-19" value="Classify" style="ellipse;whiteSpace=wrap;html=1;aspect=fixed;" vertex="1" parent="1">
          <mxGeometry x="460" y="275" width="80" height="80" as="geometry" />
        </mxCell>
        <mxCell id="SMrPEyyfzLxNEOlqvxRe-26" style="edgeStyle=orthogonalEdgeStyle;rounded=0;orthogonalLoop=1;jettySize=auto;html=1;entryX=1;entryY=0.5;entryDx=0;entryDy=0;" edge="1" parent="1" source="SMrPEyyfzLxNEOlqvxRe-21" target="SMrPEyyfzLxNEOlqvxRe-25">
          <mxGeometry relative="1" as="geometry" />
        </mxCell>
        <mxCell id="SMrPEyyfzLxNEOlqvxRe-21" value="&lt;br&gt;problem5_27156_ProductionArea" style="rounded=0;whiteSpace=wrap;html=1;" vertex="1" parent="1">
          <mxGeometry x="174" y="290" width="240" height="50" as="geometry" />
        </mxCell>
        <mxCell id="SMrPEyyfzLxNEOlqvxRe-22" value="" style="ellipse;whiteSpace=wrap;html=1;" vertex="1" parent="1">
          <mxGeometry x="394" y="300" width="10" height="10" as="geometry" />
        </mxCell>
        <mxCell id="SMrPEyyfzLxNEOlqvxRe-24" value="Producers&lt;br&gt;No Producers" style="text;html=1;strokeColor=none;fillColor=none;align=center;verticalAlign=middle;whiteSpace=wrap;rounded=0;" vertex="1" parent="1">
          <mxGeometry x="174" y="355" width="180" height="30" as="geometry" />
        </mxCell>
        <mxCell id="SMrPEyyfzLxNEOlqvxRe-31" style="edgeStyle=orthogonalEdgeStyle;rounded=0;orthogonalLoop=1;jettySize=auto;html=1;entryX=0.25;entryY=0;entryDx=0;entryDy=0;" edge="1" parent="1" source="SMrPEyyfzLxNEOlqvxRe-25" target="SMrPEyyfzLxNEOlqvxRe-27">
          <mxGeometry relative="1" as="geometry" />
        </mxCell>
        <mxCell id="SMrPEyyfzLxNEOlqvxRe-32" style="edgeStyle=orthogonalEdgeStyle;rounded=0;orthogonalLoop=1;jettySize=auto;html=1;exitX=0.5;exitY=1;exitDx=0;exitDy=0;entryX=0.25;entryY=0;entryDx=0;entryDy=0;" edge="1" parent="1" source="SMrPEyyfzLxNEOlqvxRe-25" target="SMrPEyyfzLxNEOlqvxRe-29">
          <mxGeometry relative="1" as="geometry" />
        </mxCell>
        <mxCell id="SMrPEyyfzLxNEOlqvxRe-25" value="Select" style="ellipse;whiteSpace=wrap;html=1;aspect=fixed;" vertex="1" parent="1">
          <mxGeometry x="30" y="275" width="80" height="80" as="geometry" />
        </mxCell>
        <mxCell id="SMrPEyyfzLxNEOlqvxRe-45" style="edgeStyle=orthogonalEdgeStyle;rounded=0;orthogonalLoop=1;jettySize=auto;html=1;exitX=0.75;exitY=1;exitDx=0;exitDy=0;entryX=0.5;entryY=0;entryDx=0;entryDy=0;" edge="1" parent="1" source="SMrPEyyfzLxNEOlqvxRe-27" target="SMrPEyyfzLxNEOlqvxRe-36">
          <mxGeometry relative="1" as="geometry" />
        </mxCell>
        <mxCell id="SMrPEyyfzLxNEOlqvxRe-27" value="&lt;br&gt;problem5_27156_HighProducers" style="rounded=0;whiteSpace=wrap;html=1;" vertex="1" parent="1">
          <mxGeometry x="15" y="455" width="240" height="60" as="geometry" />
        </mxCell>
        <mxCell id="SMrPEyyfzLxNEOlqvxRe-37" style="edgeStyle=orthogonalEdgeStyle;rounded=0;orthogonalLoop=1;jettySize=auto;html=1;exitX=0.5;exitY=1;exitDx=0;exitDy=0;" edge="1" parent="1" source="SMrPEyyfzLxNEOlqvxRe-29" target="SMrPEyyfzLxNEOlqvxRe-36">
          <mxGeometry relative="1" as="geometry" />
        </mxCell>
        <mxCell id="SMrPEyyfzLxNEOlqvxRe-29" value="&lt;br&gt;problem5_27156_HighProducers" style="rounded=0;whiteSpace=wrap;html=1;" vertex="1" parent="1">
          <mxGeometry x="279" y="460" width="240" height="50" as="geometry" />
        </mxCell>
        <mxCell id="SMrPEyyfzLxNEOlqvxRe-34" value="maximum(&quot;production&quot;)" style="text;html=1;strokeColor=none;fillColor=none;align=center;verticalAlign=middle;whiteSpace=wrap;rounded=0;" vertex="1" parent="1">
          <mxGeometry x="10" y="510" width="150" height="30" as="geometry" />
        </mxCell>
        <mxCell id="SMrPEyyfzLxNEOlqvxRe-35" value="minimum(&quot;production&quot;)" style="text;html=1;strokeColor=none;fillColor=none;align=center;verticalAlign=middle;whiteSpace=wrap;rounded=0;" vertex="1" parent="1">
          <mxGeometry x="404" y="520" width="150" height="30" as="geometry" />
        </mxCell>
        <mxCell id="SMrPEyyfzLxNEOlqvxRe-43" style="edgeStyle=orthogonalEdgeStyle;rounded=0;orthogonalLoop=1;jettySize=auto;html=1;exitX=0.5;exitY=1;exitDx=0;exitDy=0;" edge="1" parent="1" source="SMrPEyyfzLxNEOlqvxRe-36" target="SMrPEyyfzLxNEOlqvxRe-41">
          <mxGeometry relative="1" as="geometry" />
        </mxCell>
        <mxCell id="SMrPEyyfzLxNEOlqvxRe-36" value="Create" style="ellipse;whiteSpace=wrap;html=1;aspect=fixed;" vertex="1" parent="1">
          <mxGeometry x="210" y="570" width="80" height="80" as="geometry" />
        </mxCell>
        <mxCell id="SMrPEyyfzLxNEOlqvxRe-39" value="" style="ellipse;whiteSpace=wrap;html=1;" vertex="1" parent="1">
          <mxGeometry x="231" y="461" width="10" height="10" as="geometry" />
        </mxCell>
        <mxCell id="SMrPEyyfzLxNEOlqvxRe-40" value="" style="ellipse;whiteSpace=wrap;html=1;" vertex="1" parent="1">
          <mxGeometry x="500" y="464" width="10" height="10" as="geometry" />
        </mxCell>
        <mxCell id="SMrPEyyfzLxNEOlqvxRe-41" value="&lt;br&gt;OliveOil_Producers_Map" style="rounded=0;whiteSpace=wrap;html=1;" vertex="1" parent="1">
          <mxGeometry x="130" y="690" width="240" height="50" as="geometry" />
        </mxCell>
      </root>
    </mxGraphModel>
  </diagram>
</mxfile>
